<?xml version="1.0" encoding="utf-8"?>
<!-- Generator: Adobe Illustrator 16.0.0, SVG Export Plug-In . SVG Version: 6.00 Build 0)  -->
<!DOCTYPE svg PUBLIC "-//W3C//DTD SVG 1.1//EN" "http://www.w3.org/Graphics/SVG/1.1/DTD/svg11.dtd">
<svg version="1.1" id="Layer_1" xmlns="http://www.w3.org/2000/svg" xmlns:xlink="http://www.w3.org/1999/xlink" x="0px" y="0px"
	 width="16px" height="16px" viewBox="0 0 16 16" enable-background="new 0 0 16 16" xml:space="preserve">
<g>
	<path fill-rule="evenodd" clip-rule="evenodd" d="M11.756,1.212c-0.412,0.152-0.721,0.27-1.029,0.381
		c-0.518,0.187-1.049,0.34-1.549,0.561C8.42,2.485,7.607,2.532,6.818,2.707C4.853,3.142,3.563,4.672,3.373,6.668
		C3.3,7.437,3.362,8.18,3.591,8.905c0.522,1.657,1.7,2.562,3.38,2.84c0.529,0.087,1.072,0.082,1.605,0.146
		c0.887,0.108,1.605,0.695,1.768,1.417c0.266,1.174-0.488,2.257-1.738,2.414c-1.898,0.239-3.622-0.293-5.141-1.406
		c-2.383-1.746-3.454-4.153-3.208-7.081c0.292-3.474,2.987-6.329,6.432-6.9c1.609-0.268,3.174-0.065,4.656,0.646
		C11.455,1.034,11.559,1.101,11.756,1.212z"/>
	<path fill-rule="evenodd" clip-rule="evenodd" d="M12.557,14.216c0.178-1.614-0.406-2.789-1.873-3.504
		c0.113-0.09,0.166-0.146,0.232-0.184c0.986-0.559,1.48-1.451,1.645-2.53c0.273-1.782-0.287-3.276-1.664-4.446
		c-0.188-0.158-0.184-0.265-0.053-0.45c0.342-0.488,0.672-0.985,0.988-1.49c0.137-0.218,0.256-0.237,0.467-0.094
		c1.789,1.225,2.947,2.891,3.332,5.021c0.518,2.857-0.344,5.291-2.461,7.278c-0.125,0.118-0.266,0.22-0.402,0.323
		C12.734,14.164,12.688,14.17,12.557,14.216z"/>
	<path fill-rule="evenodd" clip-rule="evenodd" d="M5.539,7.201C5.54,5.883,6.225,4.929,7.387,4.629
		c1.455-0.376,2.92,0.655,3.023,2.152c0.027,0.394,0.016,0.804-0.064,1.188c-0.266,1.273-1.377,1.963-2.49,1.859
		C6.428,9.696,5.555,8.746,5.54,7.408C5.539,7.339,5.539,7.271,5.539,7.201z"/>
</g>
</svg>
